<?xml version="1.0" standalone="no"?>
<!DOCTYPE svg PUBLIC "-//W3C//DTD SVG 20010904//EN"
 "http://www.w3.org/TR/2001/REC-SVG-20010904/DTD/svg10.dtd">
<svg version="1.0" xmlns="http://www.w3.org/2000/svg"
 width="688.000000pt" height="688.000000pt" viewBox="0 0 688.000000 688.000000"
 preserveAspectRatio="xMidYMid meet">
<metadata>
Created by potrace 1.15, written by Peter Selinger 2001-2017
</metadata>
<g transform="translate(0.000000,688.000000) scale(0.100000,-0.100000)"
fill="#000000" stroke="none">
<path d="M3407 5919 c-12 -1527 -9 -3781 4 -3777 7 2 477 278 1045 613 731
431 1033 614 1030 625 -2 8 -94 166 -206 350 -111 184 -240 398 -287 475 -46
77 -88 147 -93 155 -6 8 -339 562 -741 1230 -402 668 -734 1219 -738 1223 -4
4 -11 -398 -14 -894z"/>
<path d="M2303 5003 c-149 -247 -428 -710 -621 -1031 -194 -321 -352 -589
-352 -595 0 -10 1560 -940 1567 -934 1 2 -26 275 -61 607 -35 333 -106 1009
-157 1502 -52 494 -97 898 -100 898 -4 0 -128 -201 -276 -447z"/>
<path d="M1330 2979 c0 -8 138 -207 306 -444 296 -417 569 -801 1168 -1645
158 -223 291 -406 296 -408 6 -2 8 9 5 25 -3 15 -39 352 -80 748 -41 396 -78
735 -82 752 -8 31 -55 60 -798 499 -434 256 -796 471 -802 476 -9 7 -13 6 -13
-3z"/>
<path d="M4438 2367 l-1038 -612 0 -852 c0 -469 4 -853 8 -853 6 0 1573 2197
1652 2316 8 13 108 153 223 313 114 160 207 293 207 296 0 3 -3 5 -7 5 -5 0
-475 -276 -1045 -613z"/>
</g>
</svg>
